# xmcd
#
# Track frame offsets: 
#        150
#        26103
#        50620
#        77645
#        98361
#        121549
#        139640
#        159598
#        182330
#        207070
#        222269
#        253870
#
# Disc length: 3637 seconds
#
# Revision: 0
# Processed by: cddbd v1.5.2PL0 Copyright (c) Steve Scherf et al.
# Submitted via: ExactAudioCopy v1.3
#
DISCID=950e330c
DTITLE=Kenny Parker - Hellfire
DYEAR=2019
DGENRE=Electric Blues
TTITLE0=I've Got My Eye On You
TTITLE1=Baby Come Back To Me
TTITLE2=Blind And Paralyzed
TTITLE3=Bye Bye Baby
TTITLE4=Hellfire
TTITLE5=Goin' in Circles
TTITLE6=Dance With Me
TTITLE7=I'm Missing You
TTITLE8=And Then We Danced
TTITLE9=Half Crazy
TTITLE10=Backup Plan
TTITLE11=Hard Times
EXTD=
EXTT0=
EXTT1=
EXTT2=
EXTT3=
EXTT4=
EXTT5=
EXTT6=
EXTT7=
EXTT8=
EXTT9=
EXTT10=
EXTT11=
PLAYORDER=
